<?xml version="1.0" standalone="no"?>
<!DOCTYPE svg PUBLIC "-//W3C//DTD SVG 20010904//EN"
 "http://www.w3.org/TR/2001/REC-SVG-20010904/DTD/svg10.dtd">
<svg version="1.0" xmlns="http://www.w3.org/2000/svg"
 width="512.000000pt" height="512.000000pt" viewBox="0 0 512.000000 512.000000"
 preserveAspectRatio="xMidYMid meet">
<metadata>
Created by potrace 1.14, written by Peter Selinger 2001-2017
</metadata>
<g transform="translate(0.000000,512.000000) scale(0.100000,-0.100000)"
fill="#000000" stroke="none">
<path d="M427 4846 c-55 -20 -103 -61 -134 -114 l-28 -47 0 -2125 0 -2125 28
-47 c31 -53 79 -94 134 -114 56 -20 4210 -20 4266 0 55 20 103 61 134 114 l28
47 0 2125 0 2125 -28 47 c-31 53 -79 94 -134 114 -56 20 -4210 20 -4266 0z
m3517 -1002 c14 -14 16 -90 16 -684 0 -594 -2 -670 -16 -684 -13 -14 -64 -16
-400 -16 l-384 0 0 -284 c0 -245 -2 -287 -16 -300 -13 -14 -64 -16 -400 -16
l-384 0 0 -284 c0 -245 -2 -287 -16 -300 -14 -14 -80 -16 -584 -16 -504 0
-570 2 -584 16 -14 14 -16 90 -16 684 0 594 2 670 16 684 13 14 64 16 400 16
l384 0 0 284 c0 245 2 287 16 300 13 14 64 16 400 16 l384 0 0 284 c0 245 2
287 16 300 14 14 80 16 584 16 504 0 570 -2 584 -16z"/>
</g>
</svg>
